<svg width="22" height="29" viewBox="0 0 22 29" fill="none" xmlns="http://www.w3.org/2000/svg">
<path fill-rule="evenodd" clip-rule="evenodd" d="M8.69044 18.1787V25.5562C8.69044 25.5562 7.35318 24.0819 5.29224 23.5367C3.23131 22.9906 1.89404 22.8496 1.89404 22.8496L1.90271 21.1069L2.45911 21.394L2.62378 21.0398V20.166L2.56311 19.2165L2.22078 18.2984L1.91398 17.957L1.97118 14.7612C1.97118 14.7612 4.58938 15.1638 6.29498 16.1846C7.99971 17.2054 8.69044 18.1787 8.69044 18.1787V18.1787Z" fill="#B4E0F1"/>
<path fill-rule="evenodd" clip-rule="evenodd" d="M10.7477 20.0754C10.7477 20.0754 10.7667 19.295 11.5641 18.5969C12.3623 17.8988 15.4823 15.7212 17.9826 15.1531C20.4838 14.5858 19.9569 14.7616 19.9569 14.7616V17.9828C19.9569 17.9828 18.2279 18.8932 18.1533 19.9846C18.0788 21.0759 18.1464 21.3714 18.3319 21.7451C18.5173 22.1188 19.0902 22.2037 19.0902 22.2037V22.9774C19.0902 22.9774 16.1236 24.0398 14.6485 24.9162C12.5668 26.1536 11.3699 27.7349 10.9981 28.208C10.6272 28.681 10.7477 20.0754 10.7477 20.0754" fill="#B4E0F1"/>
<path fill-rule="evenodd" clip-rule="evenodd" d="M20.4575 20.027C20.3457 20.2758 20.1325 20.5247 19.8837 20.7251C19.7529 20.8296 19.609 20.9187 19.4643 20.9884C19.3949 21.0198 19.3109 21.0521 19.2597 21.0648C19.2441 21.0733 19.2008 21.081 19.1479 21.0852C19.1436 21.0852 19.1367 21.0835 19.1306 21.0903C19.1367 21.0886 19.1159 21.1013 19.0907 21.0504C19.0647 21.0096 19.0448 20.9383 19.0318 20.8635C19.0058 20.709 19.0067 20.5315 19.0179 20.3548C19.0318 20.1765 19.0561 19.9947 19.1003 19.8189C19.1211 19.7298 19.1436 19.6423 19.1739 19.5574C19.2025 19.4792 19.2337 19.3977 19.2745 19.306L19.2719 19.3128C19.4279 18.9807 19.5804 18.6869 19.8083 18.4754C19.8638 18.4211 19.9262 18.3726 19.9869 18.3285L20.0571 18.2826C20.0909 18.2903 20.1429 18.3022 20.1888 18.32C20.2529 18.3438 20.3136 18.3735 20.363 18.4066C20.4124 18.438 20.4523 18.4771 20.4679 18.5017C20.4679 18.5017 20.4653 18.5009 20.4661 18.4992L20.4965 18.5603C20.4817 18.5408 20.5043 18.5969 20.5069 18.6155C20.5372 18.7353 20.5485 18.8958 20.5476 19.0572C20.5398 19.3688 20.5069 19.7094 20.4575 20.027V20.027ZM20.1507 18.224C20.1351 18.2351 20.1273 18.2402 20.1143 18.2478C20.1143 18.2478 20.1108 18.2487 20.1091 18.2495L20.1429 18.2291L20.1507 18.224ZM15.2791 15.6983C15.0876 15.7866 14.8744 15.8885 14.6803 15.9939C13.8942 16.4032 13.1298 16.861 12.4061 17.3866C12.0473 17.6533 11.6955 17.9336 11.3644 18.2427C11.2006 18.3981 11.0377 18.5578 10.8843 18.7293C10.8513 18.7667 10.8201 18.8058 10.7881 18.8431C10.6667 18.6911 10.5411 18.5442 10.4102 18.4032C10.0973 18.0746 9.75759 17.7782 9.40833 17.4979C9.05386 17.2236 8.69159 16.9612 8.31286 16.7259C7.93759 16.4856 7.55106 16.2648 7.15759 16.0584C6.96346 15.9505 6.75286 15.8503 6.56046 15.7595C6.36459 15.6745 6.16093 15.5854 5.96159 15.5115L7.27286 14.8185C7.68019 14.6036 8.18113 14.6682 8.51739 14.9807L10.2169 16.562C10.4163 16.7472 10.6719 16.8406 10.9285 16.8406C11.1841 16.8406 11.4407 16.7472 11.64 16.562L13.6238 14.7166C13.7807 14.5722 14.0155 14.551 14.1941 14.6682L15.5816 15.5701C15.4802 15.6125 15.3779 15.6558 15.2791 15.6983V15.6983ZM10.8149 27.9388L10.8123 27.9371C10.821 27.9439 10.8271 27.949 10.8149 27.9388V27.9388ZM2.6908 19.3111C2.73066 19.4003 2.76273 19.4801 2.79046 19.5565C2.8208 19.6423 2.8416 19.7298 2.86326 19.8189C2.90573 19.9956 2.92653 20.1773 2.93953 20.3548C2.94993 20.5323 2.94906 20.709 2.9222 20.8618C2.90833 20.9366 2.88753 21.0071 2.86153 21.0453C2.8364 21.0945 2.81733 21.0776 2.82773 21.0767C2.8234 21.0691 2.81646 21.0699 2.81646 21.0699C2.76273 21.0657 2.72026 21.0572 2.7064 21.0487C2.65786 21.0351 2.5738 21.0028 2.5062 20.9714C2.3632 20.9018 2.22106 20.8117 2.09193 20.7073C1.84926 20.5068 1.6378 20.2623 1.52946 20.0177C1.50693 19.8707 1.48613 19.7111 1.474 19.5574C1.4558 19.3884 1.44106 19.2194 1.43933 19.058C1.43673 18.8975 1.44973 18.7387 1.4766 18.6206C1.47833 18.6036 1.50086 18.5476 1.4844 18.5697L1.513 18.5102C1.52686 18.4873 1.56326 18.4508 1.60833 18.4202C1.656 18.3879 1.7158 18.3574 1.77906 18.3344C1.82326 18.3157 1.87353 18.303 1.9056 18.2954L1.96973 18.3361C2.03126 18.3794 2.09366 18.427 2.15 18.4797C2.37793 18.6886 2.53306 18.9807 2.6908 19.3111V19.3111ZM1.85187 18.2614C1.84927 18.2597 1.8458 18.2588 1.84407 18.258C1.8302 18.2504 1.8224 18.2453 1.80593 18.2334L1.81373 18.2385L1.85187 18.2614ZM5.94948 12.3565C6.05174 11.818 6.13148 11.2023 6.13408 10.6486C6.14968 10.0821 6.13668 9.51652 6.10808 8.95685L6.01361 7.30079C5.99454 6.75641 5.99628 6.23581 6.09854 5.71691C6.17308 5.19121 6.33514 4.68845 6.54228 4.21201C6.74854 3.73302 7.05361 3.30584 7.41588 2.93896C8.14388 2.2001 9.16741 1.77462 10.2325 1.64213L10.6269 1.60222L11.0507 1.58693L11.4389 1.60052L11.8315 1.64808C12.3524 1.73216 12.8516 1.92239 13.3014 2.19501C13.7521 2.46762 14.1542 2.82261 14.4948 3.22941C14.8389 3.64215 15.1058 4.08802 15.3233 4.58823C15.5296 5.06552 15.6631 5.59801 15.7671 6.12965C15.8494 6.56277 15.9075 7.00524 15.9491 7.44431C15.2835 7.34325 14.6153 7.21331 13.9592 7.0545C13.5813 6.95938 13.2052 6.85832 12.8343 6.74367C12.6462 6.69186 12.4651 6.62307 12.2813 6.56277C12.0976 6.50078 11.9147 6.43878 11.7371 6.36405C11.3739 6.22901 11.0264 6.06765 10.6823 5.90205C10.509 5.82052 10.3495 5.71776 10.1831 5.62773C10.0133 5.53941 9.86074 5.43155 9.70908 5.32285C9.55654 5.21499 9.39708 5.11478 9.26881 4.98484C9.14141 4.85915 8.97761 4.74535 8.87881 4.61201C8.77654 4.47528 8.66214 4.36318 8.56074 4.21371L8.28774 3.6982L7.68974 4.00819L7.97314 4.51774C8.03381 4.60692 8.10574 4.69694 8.17941 4.78611C8.14821 4.84556 8.11094 4.91435 8.05894 4.99928C7.92114 5.22858 7.71141 5.52243 7.46181 5.77975C7.21481 6.03963 6.92881 6.25704 6.69914 6.39292C6.58474 6.46341 6.48594 6.51267 6.41401 6.54409C6.34381 6.57721 6.30308 6.59675 6.30308 6.59675L6.48681 7.04431C6.48681 7.04431 6.53448 7.02392 6.61768 6.98911C6.70261 6.95683 6.82048 6.90418 6.95568 6.82944C7.22868 6.68422 7.56841 6.44812 7.86221 6.16702C8.15861 5.88846 8.40908 5.56913 8.57721 5.3169C8.59108 5.29652 8.60148 5.27869 8.61448 5.25915C8.69334 5.3254 8.77308 5.38909 8.85021 5.46128C9.00188 5.60565 9.17694 5.71351 9.34768 5.82816C9.51668 5.94536 9.68741 6.05916 9.86941 6.14918C10.0497 6.24345 10.2239 6.34791 10.4085 6.43114C10.7759 6.60014 11.1443 6.7598 11.5239 6.89229C11.7111 6.96702 11.8991 7.02223 12.0907 7.08252C12.2822 7.14197 12.4651 7.19802 12.6583 7.24728C13.0431 7.35769 13.4184 7.43242 13.8075 7.52159C14.2001 7.60907 14.5407 7.67616 14.9073 7.73391C14.8337 8.67829 14.2929 13.2932 10.7699 13.2932C8.06934 13.2932 7.20354 9.50293 6.95654 7.87319L6.46948 7.94368C6.68614 9.37299 7.35954 12.3471 9.27228 13.3968C9.18648 13.503 9.08161 13.6304 8.95248 13.7747L8.83028 13.9132C8.68728 14.0771 8.57894 14.1977 8.40734 14.342C7.97574 14.1561 7.47221 14.1654 7.03888 14.3947L5.41474 15.2525C5.47368 14.855 5.56468 14.4125 5.64181 13.9981L5.94948 12.3565ZM9.7342 13.6023C10.0497 13.7127 10.3937 13.7747 10.7699 13.7747C11.2855 13.7747 11.7423 13.6873 12.1496 13.5369C12.3307 13.7849 12.6453 14.1747 13.0717 14.5654L11.3011 16.2121C11.0923 16.4066 10.7647 16.4066 10.5558 16.2121L8.85627 14.6316C8.84933 14.6248 8.84067 14.6206 8.83373 14.6138C8.97587 14.4839 9.08333 14.3641 9.2038 14.2274L9.3234 14.0924C9.49933 13.8953 9.638 13.7246 9.7342 13.6023V13.6023ZM16.2767 15.3195C16.2351 15.334 16.1935 15.3476 16.1519 15.362L14.4662 14.2656C14.1533 14.0626 13.7651 14.0711 13.4548 14.2554C13.0778 13.9174 12.7875 13.5709 12.6063 13.3314C14.8839 12.1059 15.319 8.69782 15.3944 7.801C15.4507 7.80864 15.5088 7.81544 15.5669 7.82223C15.5634 7.8596 15.5599 7.90036 15.5556 7.94707C15.5461 8.05578 15.5339 8.18742 15.5201 8.33859C15.5088 8.48296 15.4845 8.6647 15.4802 8.87107C15.4655 9.65155 15.527 10.6452 15.6206 11.649C15.6691 12.1475 15.722 12.652 15.8069 13.1233C15.8893 13.5913 15.9811 14.021 16.0626 14.3879C16.1536 14.7845 16.2273 15.1055 16.2767 15.3195V15.3195ZM19.9565 23.9523C19.0899 24.0449 15.6483 24.568 12.0707 27.3833L12.2865 27.7596C16.2715 24.6241 19.7945 24.416 19.8309 24.4143L19.9565 24.4033V23.9523ZM19.9565 21.6568L20.2079 21.4623C20.5788 21.1761 20.8856 20.8194 21.1109 20.4126L21.1993 20.2538L21.2149 20.2122C21.2912 19.824 21.3449 19.4555 21.3345 19.0512C21.3285 18.8499 21.3189 18.6444 21.2531 18.4117C21.2297 18.3438 21.2201 18.3132 21.1707 18.2104L21.1361 18.151C21.1101 18.1128 21.0815 18.0746 21.052 18.0389C20.9489 17.9234 20.8397 17.8495 20.7279 17.7901C20.6169 17.7315 20.4436 17.6907 20.3292 17.661C20.2321 17.6372 19.9565 17.6227 19.9565 17.6193V14.7616L19.8057 14.7251H19.8075C18.9191 14.7251 18.0533 14.9093 17.1901 15.1395C17.0463 15.1786 16.9024 15.1743 16.7594 15.2151C16.7187 15.0011 16.6597 14.6741 16.5895 14.3081C16.5228 13.942 16.4474 13.5038 16.3841 13.0486C16.3191 12.5968 16.2853 12.1017 16.2559 11.6074C16.1987 10.624 16.1753 9.62097 16.2151 8.90674C16.2247 8.73944 16.2515 8.57978 16.2697 8.42266C16.2888 8.27149 16.3061 7.78486 16.32 7.67616C16.333 7.57425 16.3434 7.08167 16.3503 7.08167C16.3503 7.08167 16.372 6.42009 16.2749 5.86213C16.1727 5.30416 16.0461 4.83961 15.8199 4.29184C15.6024 3.77039 15.3017 3.28801 14.9342 2.83875C14.5884 2.41496 14.1802 2.05402 13.7148 1.74999C13.1905 1.40858 12.2389 1.07822 11.614 1.00603C11.5733 1.00179 11.5317 0.99669 11.4909 0.992444L11.0316 0.974609L10.6069 0.98565L10.1563 1.02387C8.98367 1.15211 7.7972 1.61495 6.9314 2.46762C6.50327 2.88885 6.1436 3.38397 5.90094 3.92326C5.65654 4.46084 5.4702 5.0239 5.38007 5.59546C5.2596 6.16532 5.24834 6.7615 5.26047 7.32371L5.33154 8.98912C5.35667 9.67872 5.35754 10.3615 5.30987 11.0435C5.28214 11.4367 5.21627 11.8274 5.13827 12.2146L4.80894 13.8384C4.72834 14.2503 4.63907 14.6333 4.568 15.0597C3.74034 14.8304 2.9014 14.6512 2.046 14.5229L1.75654 14.4805V14.7616C1.75654 15.7119 1.77127 16.6614 1.7652 17.6117C1.69327 17.6193 1.63087 17.6312 1.56327 17.6465C1.448 17.6762 1.33794 17.717 1.2244 17.7756C1.11174 17.8359 1.00167 17.9089 0.895935 18.027C0.864735 18.0635 0.837002 18.1026 0.810135 18.1425L0.774602 18.2011C0.723468 18.3073 0.714802 18.337 0.689668 18.4066C0.620335 18.641 0.608202 18.8482 0.601268 19.0512C0.596935 19.2533 0.604735 19.4487 0.622935 19.6406C0.647202 19.8351 0.674935 20.0168 0.714802 20.2164L0.724335 20.2623L0.739068 20.2962C0.941002 20.748 1.27207 21.0674 1.63954 21.3111C1.82414 21.4325 2.02 21.537 2.23754 21.6151C2.35194 21.6517 2.45247 21.6831 2.59634 21.7035C2.6778 21.7162 2.73154 21.717 2.77487 21.7162C2.8702 21.717 2.96294 21.6975 3.05134 21.6686C3.24027 21.5905 3.3668 21.4308 3.41447 21.3009C3.47167 21.1667 3.489 21.047 3.50114 20.9332C3.51934 20.7064 3.49854 20.5001 3.46907 20.2971C3.4396 20.095 3.38587 19.9013 3.33994 19.7068L3.2602 19.4155C3.22987 19.3111 3.19867 19.2126 3.16747 19.1259L3.16487 19.12C3.04354 18.7803 2.89447 18.3922 2.6128 18.0652C2.5452 17.982 2.47067 17.9064 2.39007 17.8334L2.26614 17.7289L2.2618 17.7264C2.25487 16.8363 2.26007 15.9471 2.2618 15.058C3.0158 15.1964 3.77067 15.3722 4.50387 15.5947C4.9164 15.7187 5.3246 15.8588 5.7198 16.0193C5.92174 16.0975 6.10634 16.1841 6.2996 16.2716C6.50154 16.3718 6.68354 16.4627 6.869 16.5705C7.246 16.7777 7.61347 16.9985 7.9688 17.2355C8.33974 17.4758 8.69074 17.7425 9.03047 18.0185C9.38234 18.303 9.7082 18.6172 10.0046 18.9561C10.1095 19.0758 10.2109 19.1981 10.3027 19.3247C10.4076 19.464 10.4102 19.3986 10.4778 19.5285L10.4951 24.0143L10.4111 26.2988L10.3235 27.4402V27.5447L10.3556 27.4954C10.0523 27.2475 9.9006 27.2203 9.57734 26.9961L9.1258 26.6496L8.55294 26.2691C8.2418 26.0619 7.91854 25.8725 7.58747 25.6967C7.25727 25.5218 6.92794 25.3468 6.58647 25.1931C6.2294 25.0258 5.86714 24.8746 5.49794 24.7362C5.127 24.6003 4.75434 24.4712 4.37387 24.3651C3.99514 24.253 3.35554 24.1638 2.96727 24.0865C2.65094 24.0287 1.75654 23.9837 1.75654 23.9549V24.1731V24.1876C1.75654 24.1876 2.49667 24.3302 3.06087 24.4619C3.43007 24.5485 3.83047 24.6886 4.19447 24.8024C4.55934 24.9094 4.932 25.0674 5.28734 25.2033C5.69554 25.3629 6.10634 25.5583 6.4946 25.7485C6.8404 25.9184 7.17667 26.1018 7.50687 26.2988C7.78247 26.4627 8.0624 26.625 8.32414 26.8101L8.7982 27.1286L9.25407 27.4708C9.4768 27.639 9.6952 27.8131 9.9084 27.9931L10.3547 28.3693L10.4284 28.4296C10.4284 28.4296 10.4761 28.4636 10.509 28.4797C10.5437 28.4967 10.5697 28.5061 10.6017 28.5154C10.7274 28.5485 10.8617 28.5349 10.9744 28.4763C11.0888 28.4211 11.2041 28.3133 11.2448 28.1893C11.2639 28.1358 11.2899 28.0458 11.2899 28.0245V27.9524L11.2699 27.667L11.2639 26.5256L11.2725 24.2411L11.2899 19.6729V19.6695V19.5913L11.2569 19.5344C11.2535 19.5285 11.2474 19.5234 11.2448 19.5175C11.315 19.4189 11.3913 19.3179 11.4727 19.2228C11.6036 19.0673 11.7466 18.9179 11.8931 18.771C12.1895 18.4788 12.5119 18.2062 12.8438 17.9446C13.5155 17.4274 14.2391 16.9654 14.9905 16.5476C15.1769 16.4397 15.3554 16.3497 15.5582 16.2486C15.7515 16.1612 15.9326 16.0779 16.1345 15.9998C16.528 15.8393 17.1182 15.7077 17.5307 15.5854C18.2639 15.3671 19.0899 15.0953 19.9565 15.0376V17.8317V17.9828C19.8759 18.0559 19.6272 18.1425 19.5587 18.224C19.2762 18.5493 18.8784 19.3111 18.8489 19.4147L18.6964 19.7068C18.6522 19.9022 18.5655 20.0958 18.5369 20.2979C18.5083 20.5001 18.4702 20.7064 18.4901 20.9323C18.5014 21.0453 18.5109 21.1642 18.569 21.2958C18.6167 21.4232 18.7371 21.5795 18.9209 21.6551C19.0084 21.6831 19.0968 21.7018 19.1895 21.7009C19.2329 21.7009 19.4695 21.7001 19.5492 21.6873C19.6359 21.6746 19.9565 21.6568 19.9565 21.6372V21.6568Z" fill="black"/>
<path fill-rule="evenodd" clip-rule="evenodd" d="M19.668 18.1754H20.045V14.6884L19.668 14.7249V18.1754Z" fill="black"/>
<mask id="mask0" mask-type="alpha" maskUnits="userSpaceOnUse" x="0" y="0" width="22" height="29">
<path fill-rule="evenodd" clip-rule="evenodd" d="M0.600098 28.5331H21.336V0.974487H0.600098V28.5331Z" fill="white"/>
</mask>
<g mask="url(#mask0)">
<path fill-rule="evenodd" clip-rule="evenodd" d="M1.7666 24.1297H2.2736V21.1063H1.7666V24.1297Z" fill="black"/>
<path fill-rule="evenodd" clip-rule="evenodd" d="M19.4502 24.1297H19.9572V21.1063H19.4502V24.1297Z" fill="black"/>
</g>
</svg>
