<svg width="17" height="27" viewBox="0 0 17 27" fill="none" xmlns="http://www.w3.org/2000/svg">
<path fill-rule="evenodd" clip-rule="evenodd" d="M9.87645 11.3965C9.87645 11.3965 10.9773 12.3084 10.8023 13.5241C10.6381 14.6635 9.21812 15.5615 7.76229 15.8569C6.30645 16.1514 4.09562 15.8294 3.76979 15.7255C3.44395 15.6225 2.92979 16.0338 2.88812 16.5189C2.84645 17.004 5.88979 25.2026 5.88979 25.2026C5.88979 25.2026 8.72479 25.8388 11.9815 24.2358C15.4698 22.5195 15.9606 20.6006 15.9606 20.6006L12.839 11.7426L11.8798 11.1433L10.7581 10.9235L9.87645 11.3965Z" fill="#B0A7D2"/>
<path fill-rule="evenodd" clip-rule="evenodd" d="M4.41108 18.3608L4.14941 17.7795C4.14941 17.7795 7.41775 17.546 8.93941 17.0033C10.6636 16.3894 12.3402 14.8955 12.3402 14.8955C12.3402 14.8955 13.7594 19.0571 13.8361 19.349C13.9119 19.6409 12.4069 20.648 11.9336 20.9374C11.4594 21.2267 9.58608 22.3686 8.02691 22.4442C6.46858 22.5206 5.74275 22.5283 5.74275 22.5283L4.41108 18.3608Z" fill="white"/>
<mask id="mask0" mask-type="alpha" maskUnits="userSpaceOnUse" x="0" y="0" width="10" height="16">
<path fill-rule="evenodd" clip-rule="evenodd" d="M9.9888 0.0251465H0.166504V15.2557H9.9888V0.0251465Z" fill="white"/>
</mask>
<g mask="url(#mask0)">
<path fill-rule="evenodd" clip-rule="evenodd" d="M9.55734 12.6486L4.789 0.746924L5.0965 1.01738C5.01817 0.997631 4.91234 0.976166 4.81734 0.960712C4.72067 0.94354 4.6215 0.928944 4.52317 0.917782C4.32567 0.895459 4.1265 0.880004 3.92984 0.879146C3.5365 0.878287 3.14317 0.916924 2.78734 1.03197L2.654 1.07662C2.62567 1.08521 2.56067 1.1144 2.5165 1.13243C2.4115 1.17364 2.33484 1.21399 2.2465 1.25435C2.069 1.3445 1.894 1.44238 1.72484 1.55228C1.55567 1.66303 1.3915 1.78238 1.23484 1.91117C1.15567 1.9747 1.07984 2.04167 1.00484 2.1095C0.932337 2.17561 0.854837 2.25202 0.797337 2.31298V2.31384L0.865671 1.98071L4.63067 14.6852L4.46984 14.5315C4.704 14.5865 4.94984 14.6337 5.1915 14.6732C5.434 14.7118 5.67817 14.7436 5.9215 14.7668C6.16567 14.7857 6.40984 14.8028 6.65067 14.7977C6.7715 14.8003 6.88984 14.7874 7.00984 14.7822C7.12567 14.7659 7.2465 14.7599 7.35817 14.7316C7.474 14.7135 7.579 14.6766 7.6865 14.6431C7.7915 14.6002 7.92067 14.5504 8.02734 14.5015C8.24484 14.4053 8.46317 14.2911 8.6715 14.1683C8.879 14.043 9.079 13.9048 9.26484 13.7519C9.35817 13.6755 9.65734 13.4231 9.70234 13.2325L9.79234 13.3389C9.91317 13.4806 9.91567 13.6918 9.79984 13.8378C9.70567 13.958 9.59984 14.0593 9.5415 14.1074C9.33567 14.2765 9.119 14.4268 8.894 14.5624C8.66734 14.6955 8.439 14.8157 8.19567 14.923C8.074 14.9788 7.96734 15.0192 7.83984 15.0716C7.70734 15.1145 7.57484 15.1583 7.44234 15.1798C7.30984 15.2115 7.179 15.2192 7.04734 15.2373C6.9165 15.2433 6.78484 15.257 6.65567 15.2544C6.39567 15.2605 6.139 15.2424 5.88317 15.2218C5.62734 15.1986 5.374 15.1652 5.12234 15.1248C4.869 15.0844 4.62234 15.0372 4.36734 14.9771L4.2465 14.9488L4.2065 14.8226L0.224837 2.18849L0.166504 2.00475L0.293171 1.85622L0.294004 1.8545C0.380671 1.75404 0.455671 1.67677 0.538171 1.59263C0.620671 1.51192 0.703171 1.43293 0.789837 1.35738C0.960671 1.20627 1.13984 1.06374 1.32567 0.930661C1.51234 0.798439 1.7065 0.678237 1.90817 0.565762C2.0115 0.51253 2.12484 0.450712 2.21734 0.410358C2.2715 0.386318 2.304 0.368287 2.37484 0.339095L2.54317 0.274701C2.99567 0.108994 3.4615 0.0463176 3.91817 0.0282873C4.14734 0.0197015 4.37484 0.0282873 4.6015 0.0446005C4.71567 0.0523277 4.82817 0.0643479 4.94234 0.0789439C5.05817 0.0943984 5.16317 0.109853 5.29234 0.136469H5.29317L5.51734 0.188843L5.6015 0.406924L9.91567 11.5308C10.0165 11.7926 10.0265 11.9661 9.8615 12.3207C9.72484 12.6126 9.55734 12.6486 9.55734 12.6486Z" fill="#181716"/>
</g>
<path fill-rule="evenodd" clip-rule="evenodd" d="M6.44191 18.7127C6.78275 18.6723 7.12441 18.6294 7.46525 18.571C7.63608 18.5436 7.80525 18.5118 7.97775 18.4783C8.15275 18.4422 8.32608 18.4053 8.48775 18.3633C8.66025 18.322 8.83608 18.2671 9.00525 18.2113C9.17525 18.152 9.34192 18.0885 9.50442 18.0172C9.66858 17.9494 9.82775 17.8713 9.98525 17.7923C10.1427 17.7124 10.2977 17.6292 10.4502 17.5416C10.7552 17.3682 11.0527 17.1827 11.3427 16.9869C11.4877 16.8891 11.6311 16.7886 11.7711 16.6839C11.7911 16.6693 11.8111 16.6538 11.8311 16.6392C11.8311 16.6392 12.7952 19.1849 12.8786 19.4562C12.9419 19.6649 12.9344 19.8357 12.9344 19.8357C12.9552 19.8606 13.0519 19.8486 13.1936 19.7138C13.3252 19.5885 13.4244 19.3343 13.3536 19.1222L12.3011 15.9678L12.1527 15.5265L11.7777 15.8133V15.8141C11.6527 15.9103 11.5144 16.0107 11.3786 16.1052L10.9644 16.3868C10.6861 16.5705 10.4019 16.744 10.1136 16.9054C9.82525 17.0694 9.52858 17.211 9.23108 17.3424C9.08191 17.4077 8.93108 17.466 8.78025 17.5193C8.62775 17.5708 8.47941 17.6189 8.32275 17.6566C8.15608 17.7004 7.99691 17.7348 7.84025 17.7683C7.68025 17.8 7.51608 17.8318 7.35275 17.8593C7.02608 17.9168 6.69441 17.9597 6.36358 18.0009C6.03191 18.0421 5.69775 18.0636 5.36441 18.0945C5.03108 18.1237 4.69358 18.1443 4.36441 18.1563L3.89941 18.1735L5.62358 22.8477L5.80108 22.8485C6.11608 22.8477 6.41108 22.8391 6.72025 22.8236C7.02775 22.8082 7.33025 22.7884 7.63858 22.7584C7.94608 22.73 8.25108 22.6931 8.55858 22.645C8.86608 22.5978 9.17108 22.536 9.47775 22.4596C9.63025 22.4175 9.78275 22.3771 9.93442 22.3222C10.0869 22.269 10.2377 22.2106 10.3777 22.1445C10.6719 22.0088 10.9436 21.8586 11.2136 21.6963C11.6177 21.4516 11.9319 21.2661 12.3869 20.8969C12.5852 20.7364 12.6361 20.4513 12.4861 20.2427L12.4636 20.2152C12.0602 20.6437 11.5069 20.9862 10.9861 21.2859C10.7269 21.4344 10.4569 21.5735 10.1927 21.6877C10.0544 21.7495 9.91858 21.7967 9.78192 21.8414C9.64525 21.8869 9.50191 21.9212 9.35942 21.9573C9.07192 22.0217 8.77942 22.0741 8.48358 22.1118C8.18775 22.1513 7.88941 22.1797 7.58941 22.2003C7.29025 22.2226 6.98941 22.2338 6.68941 22.2423C6.45775 22.2484 6.22525 22.2492 5.99441 22.2466L4.84275 18.8449C5.03441 18.8346 5.22608 18.8226 5.41775 18.8089C5.75941 18.784 6.10108 18.7522 6.44191 18.7127Z" fill="#181716"/>
<path fill-rule="evenodd" clip-rule="evenodd" d="M3.48715 14.3225C3.48715 14.3225 3.33632 14.3346 3.11548 14.4762C2.88632 14.6239 2.55715 14.8592 2.24548 15.2344C2.17132 15.3245 2.08882 15.4404 2.03298 15.5349L2.00382 15.5864C1.99548 15.6018 1.99465 15.607 1.98882 15.6182C1.98132 15.6353 1.96798 15.6654 1.95882 15.6903C1.93965 15.7418 1.92382 15.7967 1.91215 15.8534C1.88798 15.9667 1.88382 16.0895 1.90465 16.214C1.91965 16.3119 1.99132 16.5248 2.04298 16.7077C2.27132 17.4615 2.51382 18.3167 2.78132 19.2483C3.05132 20.179 3.34382 21.1869 3.65298 22.2533C3.81132 22.7848 3.97298 23.3308 4.13965 23.8889C4.22382 24.1662 4.30965 24.447 4.39632 24.7303C4.48382 25.0042 4.57882 25.3133 4.66798 25.5451L4.68382 25.588C4.67298 25.5692 4.71382 25.6456 4.66132 25.5486L4.66882 25.5606L4.68382 25.5838L4.69965 25.6078C4.70382 25.6121 4.69882 25.5992 4.69798 25.5966C4.69298 25.5872 4.68632 25.5786 4.67798 25.5735C4.67798 25.5735 4.70298 25.588 4.71382 25.5975L4.77965 25.631C4.88048 25.6756 5.00465 25.716 5.13548 25.7486C5.39715 25.8147 5.68382 25.8559 5.97215 25.886C6.55215 25.9452 7.15298 25.9521 7.75548 25.928C8.95882 25.8705 10.1938 25.6894 11.3222 25.2687C11.3938 25.2438 11.4613 25.2128 11.5305 25.1854L11.6288 25.1442L11.7363 25.0944C11.8772 25.0274 12.028 24.9639 12.1613 24.8935C12.4313 24.7595 12.7022 24.6127 12.9688 24.459C13.4997 24.1491 14.0105 23.8039 14.4846 23.4253C14.953 23.0475 15.4121 22.6319 15.7263 22.1829C15.7655 22.1271 15.7922 22.073 15.8263 22.0189C15.843 21.9914 15.8471 21.9691 15.8588 21.9442C15.8655 21.9236 15.8871 21.8901 15.883 21.8798C15.8838 21.8652 15.888 21.8523 15.8938 21.8386C15.8946 21.8292 15.8963 21.909 15.8946 21.8678L15.893 21.8532L15.8888 21.8249L15.8813 21.7673C15.8738 21.6832 15.8538 21.6317 15.8388 21.569C15.813 21.4574 15.7705 21.3063 15.7296 21.162C15.6905 21.0187 15.6455 20.8744 15.6021 20.7302C15.2513 19.5805 14.8738 18.4712 14.518 17.422C14.158 16.372 13.8172 15.3803 13.503 14.4642C13.3447 14.0066 13.1922 13.5687 13.048 13.1514C12.9747 12.9437 12.9038 12.7402 12.8347 12.5427C12.7613 12.3392 12.7122 12.1606 12.6288 12.0318C12.5463 11.8945 12.4405 11.7786 12.3222 11.6901C12.2622 11.6463 12.2005 11.6086 12.1363 11.5776C12.0713 11.545 12.013 11.5261 11.928 11.4969C11.6388 11.4059 11.3497 11.3561 11.0921 11.3347C10.5713 11.2935 10.1555 11.3493 9.87632 11.3965C9.73715 11.4231 9.62965 11.4446 9.55882 11.4626C9.48632 11.4798 9.44965 11.4884 9.44965 11.4884C9.41298 11.3467 9.37715 11.2042 9.34048 11.0616C9.37882 11.0513 9.41715 11.041 9.45548 11.0307C9.53132 11.0093 9.64548 10.9818 9.79548 10.9483C10.0947 10.8882 10.543 10.8118 11.1238 10.8393C11.4146 10.8539 11.7322 10.8994 12.0797 11.0024C12.1522 11.0256 12.2563 11.0573 12.3472 11.1011C12.4405 11.1441 12.5313 11.1964 12.6188 11.2583C12.793 11.3827 12.9488 11.5467 13.0722 11.7434C13.103 11.7923 13.1305 11.8429 13.158 11.8962L13.198 11.9829L13.2263 12.0542C13.263 12.1512 13.2997 12.2499 13.3372 12.3504C13.4096 12.547 13.4847 12.7488 13.5613 12.9557C13.7147 13.3704 13.8747 13.8057 14.0422 14.2607C14.3763 15.1708 14.7363 16.1573 15.1038 17.2065C15.4713 18.2566 15.8597 19.3607 16.228 20.5258C16.2738 20.6718 16.3213 20.8169 16.3638 20.968C16.4072 21.1174 16.4521 21.2608 16.4955 21.4488C16.5155 21.5364 16.5405 21.6325 16.5471 21.7038L16.5555 21.7613L16.5596 21.7897L16.5613 21.8043C16.5605 21.7734 16.5655 21.8626 16.5638 21.8626C16.5563 21.9253 16.5463 21.988 16.5338 22.0507C16.523 22.1185 16.4997 22.152 16.4822 22.2044C16.4622 22.2499 16.4447 22.3031 16.4222 22.3426C16.3763 22.4207 16.333 22.5057 16.2838 22.577C15.8897 23.1479 15.4113 23.5738 14.9138 23.9885C14.413 24.3972 13.8805 24.7655 13.3247 25.0978C13.0463 25.2618 12.763 25.4198 12.4688 25.57C12.3222 25.6482 12.1821 25.7083 12.038 25.7787L11.9313 25.8293L11.8113 25.8817C11.7347 25.9135 11.6588 25.9487 11.5805 25.977C10.3438 26.4518 9.05798 26.6484 7.79215 26.724C7.15798 26.7566 6.52798 26.7566 5.89798 26.6999C5.58298 26.6699 5.26965 26.6295 4.94882 26.5531C4.78798 26.5136 4.62548 26.4664 4.45298 26.3908L4.31882 26.3239C4.26798 26.2904 4.22882 26.268 4.16965 26.2217C4.13382 26.1908 4.09882 26.1564 4.06715 26.1212C4.05298 26.1049 4.03298 26.0809 4.02548 26.0706L4.00965 26.0474L3.99382 26.0234L3.98632 26.0122C3.92715 25.9074 3.96632 25.9736 3.95132 25.9461L3.92548 25.8834C3.79465 25.552 3.71465 25.2858 3.61715 24.9939C3.52632 24.7089 3.43715 24.4264 3.34798 24.1473C3.17632 23.5893 3.00715 23.0423 2.84382 22.5109C2.52298 21.4454 2.21965 20.4391 1.94048 19.5093C1.66298 18.5794 1.40798 17.7277 1.19798 16.9678C1.14715 16.7704 1.08715 16.6227 1.04132 16.3565C1.00465 16.117 1.01548 15.8783 1.06465 15.6585C1.08882 15.5477 1.12215 15.4421 1.16632 15.3434C1.18798 15.2927 1.20882 15.2498 1.23715 15.1966L1.27882 15.1236L1.31048 15.0738C1.42048 14.9064 1.51798 14.787 1.62632 14.6651C2.09298 14.1577 2.96715 13.6099 3.48715 14.3225Z" fill="#181716"/>
</svg>
