<svg width="25" height="25" viewBox="0 0 25 25" fill="none" xmlns="http://www.w3.org/2000/svg">
<path fill-rule="evenodd" clip-rule="evenodd" d="M8.74811 15.1957C7.78061 13.8915 7.59727 14.2482 7.59727 14.2482C7.59727 14.2482 4.05811 15.4423 2.33144 13.259C0.604774 11.0757 -0.316892 7.97401 1.08561 6.05401C2.48811 4.13401 4.16894 3.47401 5.60394 3.34818C7.03894 3.22151 11.0398 4.15985 13.1514 4.18151C17.3598 4.22401 20.5414 3.95818 20.5414 3.95818L21.3256 8.14318C21.3256 8.14318 16.6689 9.39485 14.8639 10.7948C13.0589 12.1948 12.0256 13.5015 12.3014 14.9315C12.3014 14.9315 11.6198 16.349 13.6581 19.1932C15.1006 21.2048 15.2223 22.4223 14.6664 22.754C14.1114 23.0857 13.0414 23.4723 11.9114 21.7232C10.7814 19.974 8.74811 15.1957 8.74811 15.1957Z" fill="#F6CEA9"/>
<path fill-rule="evenodd" clip-rule="evenodd" d="M22.8999 1.07834C22.8999 1.07834 22.9966 1.29834 23.1782 1.71168C23.3516 2.12834 23.5941 2.74584 23.8432 3.55084C24.0907 4.35668 24.3149 5.35668 24.4799 6.51918C24.4949 6.68251 24.5282 6.76668 24.5282 7.00001C24.5157 7.20501 24.4099 7.43251 24.1849 7.54751C23.8216 7.67501 23.5657 7.73418 23.2382 7.83418C22.6132 8.01584 21.9566 8.20668 21.2707 8.40668C19.8907 8.77501 18.4707 9.31001 17.0107 10.0342C15.5399 10.7442 14.0949 11.615 12.5457 12.555C10.9741 13.4525 9.22573 14.1833 7.3999 14.6917C6.96656 14.815 6.4624 14.9767 5.94656 15.005C5.4349 15.0325 4.91073 15.0067 4.41406 14.8683C3.41573 14.6125 2.50406 14.0583 1.79906 13.3208C1.08823 12.605 0.565731 11.6433 0.278231 10.7175C-0.0276025 9.73001 -0.0667691 8.70918 0.0898976 7.71584C0.274064 6.73251 0.672398 5.78084 1.3224 5.02418C1.63656 4.64001 2.0149 4.31001 2.43156 4.04751C2.63323 3.91084 2.86073 3.79751 3.09573 3.69501C3.33573 3.58834 3.5049 3.54501 3.76323 3.46084C5.4799 2.95668 7.22906 2.62334 8.88156 2.51751C9.70906 2.45418 10.5282 2.46584 11.2841 2.46418C12.0491 2.45918 12.7882 2.43584 13.4957 2.39501C14.9116 2.31418 16.2032 2.16334 17.3282 1.94418C18.4407 1.73251 19.4182 1.41501 20.2224 1.21001C21.0257 0.990844 21.6574 0.818344 22.0882 0.700844C22.1907 0.659178 22.4032 0.650844 22.5082 0.703344C22.6299 0.748344 22.7099 0.817511 22.7657 0.875844C22.8207 0.935844 22.8524 0.988344 22.8766 1.03084C22.8899 1.05751 22.8966 1.07084 22.8966 1.07084L22.8999 1.07834ZM22.5216 1.26084C22.5216 1.26084 22.5149 1.24751 22.5016 1.22168C22.4957 1.21501 22.4824 1.19084 22.4582 1.16668C22.3982 1.12084 22.3549 1.06001 22.2049 1.11584C21.7766 1.24001 21.1474 1.42251 20.3474 1.65501C19.5407 1.87418 18.5941 2.20168 17.4299 2.44501C16.2799 2.68834 14.9674 2.86168 13.5332 2.96668C12.8157 3.02001 12.0682 3.05584 11.2932 3.07334C10.5099 3.08751 9.73573 3.08918 8.93156 3.16334C7.3174 3.29501 5.66156 3.63584 3.96073 4.16418C2.3499 4.59084 1.15406 6.12418 0.899898 7.85085C0.776564 8.70835 0.835731 9.62334 1.1024 10.4458C1.24823 10.9242 1.40156 11.2742 1.62406 11.6742C1.8474 12.055 2.1024 12.4208 2.41156 12.735C3.0074 13.3833 3.78073 13.8675 4.61573 14.0975C5.0324 14.2233 5.4674 14.2483 5.8949 14.235C6.32573 14.2192 6.72823 14.0975 7.1974 13.9733C8.99156 13.5075 10.6841 12.8333 12.2291 11.9875C13.7474 11.1025 15.2782 10.2167 16.7699 9.53084C18.2557 8.82335 19.7541 8.29084 21.1416 7.94751C21.8307 7.76001 22.4907 7.58084 23.1191 7.41001C23.4199 7.32668 23.7132 7.24584 23.9982 7.16751C24.0541 7.14418 24.1057 7.06418 24.1082 6.97251C24.1132 6.90668 24.0757 6.70084 24.0616 6.57584C23.9032 5.44001 23.6499 4.46668 23.4182 3.67834C23.1866 2.88751 22.9557 2.28168 22.7866 1.87418C22.6116 1.46918 22.5182 1.25334 22.5182 1.25334L22.5216 1.26084Z" fill="black"/>
<path fill-rule="evenodd" clip-rule="evenodd" d="M19.9969 1.4834C19.9969 1.4834 20.4461 2.71173 20.7761 3.97257C21.1236 5.2284 21.3228 6.5209 21.3228 6.5209L20.9228 6.5884C20.9228 6.5884 20.6853 5.33173 20.3011 4.1084C19.9336 2.88007 19.4536 1.6959 19.4536 1.6959L19.9969 1.4834Z" fill="black"/>
<path fill-rule="evenodd" clip-rule="evenodd" d="M5.19092 8.51116L9.36259 7.58032L9.46175 7.93116L5.41675 9.31366L5.19092 8.51116Z" fill="black"/>
<path fill-rule="evenodd" clip-rule="evenodd" d="M4.69775 6.97246C4.69775 6.97246 4.94525 6.87412 5.34359 6.74162C5.73525 6.60996 6.26359 6.45912 6.79775 6.34162C7.86609 6.09912 8.94859 6.01746 8.94859 6.01746L8.99859 6.37829C8.99859 6.37829 7.95275 6.57496 6.95775 6.91912C6.46025 7.08746 5.97525 7.28496 5.62025 7.44912C5.27192 7.60996 5.03192 7.73579 5.03192 7.73579L4.69775 6.97246Z" fill="black"/>
<path fill-rule="evenodd" clip-rule="evenodd" d="M5.69043 10.057C5.69043 10.057 5.9521 10.0354 6.3446 10.002C6.73376 9.96287 7.2521 9.8862 7.7646 9.77454C8.79293 9.56037 9.7721 9.14954 9.7721 9.14954L9.92876 9.4787C9.92876 9.4787 8.9721 10.0095 7.9246 10.3512C7.4046 10.5262 6.87126 10.6662 6.46626 10.7529C6.06293 10.8312 5.79376 10.8837 5.79376 10.8837L5.69043 10.057Z" fill="black"/>
<path fill-rule="evenodd" clip-rule="evenodd" d="M2.97377 4.19868C2.97377 4.19868 2.9221 4.37284 2.83127 4.67701C2.78377 4.82951 2.72877 5.01368 2.6846 5.22451C2.6396 5.43618 2.57127 5.67118 2.53544 5.93701C2.43794 6.46451 2.37877 7.08868 2.38294 7.75701C2.40127 8.08951 2.40294 8.43701 2.46544 8.78201C2.5046 9.13118 2.59377 9.47618 2.6746 9.82284C2.7846 10.1612 2.88627 10.5028 3.03294 10.822C3.15794 11.1503 3.33627 11.4487 3.4921 11.7437C3.8346 12.3187 4.2071 12.8237 4.5646 13.2262C4.7321 13.4362 4.91377 13.6037 5.06377 13.7628C5.21294 13.9228 5.35377 14.0512 5.47127 14.1562C5.70377 14.367 5.8371 14.4878 5.8371 14.4878L5.65627 14.6995C5.65627 14.6995 5.52044 14.577 5.28127 14.3628C5.16127 14.257 5.01627 14.1262 4.8621 13.9637C4.70794 13.8012 4.52127 13.6303 4.3471 13.4162C3.97877 13.0053 3.59044 12.4878 3.23377 11.8953C3.0696 11.5912 2.88377 11.2828 2.7521 10.9428C2.59794 10.6128 2.4896 10.2587 2.37377 9.90701C2.2871 9.54784 2.19294 9.18951 2.1496 8.82701C2.08294 8.46868 2.07877 8.10868 2.05794 7.76284C2.0496 7.07034 2.10627 6.42451 2.20377 5.88034C2.23877 5.60618 2.30877 5.35951 2.3546 5.13868C2.40044 4.91618 2.4546 4.73118 2.50044 4.57951C2.5896 4.27451 2.64127 4.10034 2.64127 4.10034L2.97377 4.19868Z" fill="black"/>
<path fill-rule="evenodd" clip-rule="evenodd" d="M14.1935 11.3245C14.1935 11.3245 13.876 11.6704 13.4152 12.3495C13.1893 12.6895 12.9227 13.1137 12.7093 13.6304C12.5093 14.1279 12.3143 14.8129 12.6677 15.3045C13.091 15.847 13.6552 16.3679 14.2502 16.932C14.8427 17.4987 15.4885 18.0862 16.0452 18.8295C16.3193 19.192 16.5693 19.6462 16.6868 20.1095C16.8102 20.5779 16.8885 21.0387 16.9535 21.512C17.0168 21.9829 17.0635 22.4579 17.0985 22.9354C17.111 23.1887 17.1427 23.3795 17.1318 23.6854C17.0968 24.0137 16.9185 24.2837 16.6785 24.4645C16.5593 24.5545 16.4235 24.622 16.281 24.6645C16.2085 24.6862 16.1402 24.7004 16.0602 24.7112L15.8802 24.7295C15.6085 24.7487 15.356 24.7337 15.0977 24.687C14.5877 24.5937 14.096 24.3654 13.7093 24.012C13.0202 23.277 12.4868 22.5679 11.9327 21.8412C10.8568 20.3929 9.95852 18.9645 9.38852 17.5954C9.24935 17.2537 9.14352 16.8937 9.06935 16.577C8.99852 16.2579 8.91602 16.1279 8.71518 15.9379C8.34768 15.5937 7.89852 15.3787 7.53852 15.2212C7.17185 15.0654 6.86935 14.9704 6.66435 14.9087C6.46185 14.8537 6.35352 14.8245 6.35352 14.8245L6.50935 14.167C6.50935 14.167 6.63018 14.2012 6.85852 14.2654C7.07935 14.3345 7.40268 14.4395 7.80185 14.6145C8.19768 14.7962 8.68518 15.0204 9.16685 15.4762C9.40685 15.6695 9.64102 16.1012 9.68685 16.427C9.75768 16.7454 9.84268 17.0454 9.96852 17.3679C10.4793 18.6479 11.3493 20.0787 12.3893 21.5045C12.9077 22.2045 13.4885 22.9745 14.0735 23.6145C14.3777 23.8987 14.7743 24.0904 15.1952 24.172C15.601 24.2404 16.1043 24.2629 16.3743 24.0562C16.5177 23.9554 16.6152 23.7895 16.6318 23.642C16.6427 23.4729 16.616 23.1887 16.606 22.9687C16.5752 22.4995 16.5343 22.0329 16.4777 21.5737C16.3552 20.6462 16.226 19.7679 15.681 19.0954C15.1727 18.3995 14.5418 17.8079 13.9577 17.2387C13.3718 16.6704 12.7968 16.1329 12.346 15.5412C12.0927 15.1954 12.0518 14.7704 12.0943 14.4254C12.1335 14.0712 12.2443 13.7637 12.3585 13.4854C12.5952 12.9304 12.876 12.4945 13.1135 12.1437C13.5968 11.4479 13.9302 11.0912 13.9302 11.0912L14.1935 11.3245Z" fill="black"/>
</svg>
