<svg width="21" height="26" viewBox="0 0 21 26" fill="none" xmlns="http://www.w3.org/2000/svg">
<path fill-rule="evenodd" clip-rule="evenodd" d="M4.05417 3.08712L0.98584 7.72812L10.215 13.1134L12.4992 4.88437L8.54251 1.948L4.05417 3.08712Z" fill="#F18B98"/>
<mask id="mask0" mask-type="alpha" maskUnits="userSpaceOnUse" x="0" y="0" width="21" height="26">
<path fill-rule="evenodd" clip-rule="evenodd" d="M20.7567 25.9247V0.8125L0.5 0.8125V25.9247H20.7567V25.9247Z" fill="white"/>
</mask>
<g mask="url(#mask0)">
<path fill-rule="evenodd" clip-rule="evenodd" d="M1.30666 7.64569L10.1717 13.0358L12.9058 8.19087L12.935 8.11937L13.5667 7.02006L15.0067 4.46881L2.99666 7.35319C3.09916 7.12081 3.29166 6.9575 3.52666 6.89494L14.6858 3.89112L10.44 2.06056C10.3033 2.00125 10.1475 1.98744 10.0017 2.02237L4.5225 3.31912L1.30666 7.64569ZM3.04832 19.5976C3.46416 20.8569 4.28916 21.8652 4.90916 22.4901C5.67249 23.2587 6.59916 23.8713 7.66416 24.3117C8.91999 24.8309 10.28 25.0567 11.5975 24.9649C12.1617 24.9251 12.725 24.8366 13.2708 24.7001C14.635 24.3596 15.9017 23.721 16.9367 22.8516C18.6417 21.4192 19.7308 19.2961 19.85 17.1731C19.9483 15.4172 19.4758 13.6891 18.52 12.3054C17.875 11.3702 17.075 10.591 16.1425 9.98894C15.49 9.56725 14.4633 9.01719 13.2758 8.78725C13.1775 8.76775 13.1183 8.75556 13.0658 8.76856C12.9967 8.78562 12.9683 8.836 12.9317 8.89937L10.2467 13.3007C10.0583 13.2097 9.42166 12.8546 8.34999 12.242L6.85332 11.397L5.94082 10.8737C5.83499 10.8242 5.76832 10.7868 5.72082 10.7592C5.64499 10.7153 5.59332 10.6861 5.52582 10.7031C5.47666 10.7153 5.43832 10.7478 5.36832 10.8047C5.00082 11.1077 4.69166 11.4384 4.40999 11.7521C3.82082 12.4086 3.34082 13.2186 3.01999 14.0961C2.69332 14.9882 2.52832 15.9348 2.54332 16.8326C2.55499 17.4932 2.65416 18.1919 2.85582 19.0296L3.01749 18.9922L2.95666 19.0832L2.85916 19.0369L3.04832 19.5976ZM13.525 25.6304C12.7617 25.8205 11.9767 25.9196 11.1933 25.9245C7.595 25.9481 4.265 24.0159 2.71 21.0032C1.83167 19.3042 1.53 17.3469 1.85917 15.492C2.20833 13.5266 3.2925 11.7285 4.91 10.4293L5.0025 10.3546L0.5 7.81794L3.94583 2.56756C3.96167 2.544 3.99167 2.52775 4.0475 2.51394L4.17167 2.48712L10.33 0.814187C10.3642 0.806062 10.4017 0.828 10.46 0.864562L15.9958 3.88381L13.3517 8.21444L13.4675 8.23719C14.505 8.43544 15.5408 8.8295 16.4642 9.37631C18.2967 10.4642 19.685 12.1388 20.275 13.971C20.8708 15.8211 20.915 17.6402 20.4042 19.2327C19.7275 21.3428 18.3567 23.1498 16.5425 24.3214C15.6117 24.9227 14.5967 25.3631 13.5258 25.6296L13.525 25.6304Z" fill="#181716"/>
</g>
<path fill-rule="evenodd" clip-rule="evenodd" d="M14.4278 10.6469C14.4278 10.6469 14.5486 10.7086 14.7745 10.8248C15.0103 10.9564 15.3411 11.1514 15.7286 11.4529C16.1136 11.7543 16.5545 12.1614 16.9695 12.7025C17.3861 13.242 17.757 13.9277 18.0078 14.724L18.1003 15.0433L18.1636 15.3423C18.2111 15.5389 18.2511 15.7494 18.2695 15.9858C18.2986 16.2157 18.3203 16.4489 18.3128 16.6797C18.3186 16.912 18.3136 17.1477 18.282 17.3857C18.192 18.3372 17.8845 19.3252 17.3478 20.2311C16.8011 21.1297 16.0245 21.9382 15.0786 22.541C14.1453 23.148 12.9961 23.5177 11.8811 23.6087C9.56696 23.828 7.2578 22.814 5.89113 21.2102C5.19613 20.4164 4.71696 19.4982 4.45946 18.5801C4.37196 18.325 4.35363 18.1308 4.29863 17.9074C4.2703 17.6742 4.22196 17.4385 4.21696 17.2167C4.1778 16.7699 4.20363 16.3352 4.24863 15.9232C4.34446 15.0961 4.61446 14.3697 4.91696 13.7693C5.22446 13.168 5.5778 12.6919 5.8978 12.3279C6.22613 11.9688 6.51113 11.7137 6.71446 11.5512C6.9203 11.3919 7.0303 11.3066 7.0303 11.3066L7.32946 11.6901C7.32946 11.6901 7.2303 11.7722 7.04446 11.9265C6.86113 12.0834 6.60613 12.3287 6.3153 12.6684C5.74863 13.3492 5.07113 14.4908 4.9053 15.9972C4.8703 16.3709 4.85113 16.7634 4.89196 17.1672C4.89863 17.3719 4.9453 17.5629 4.96863 17.7668C5.02196 17.9707 5.0578 18.2242 5.12696 18.3965C5.37113 19.222 5.8128 20.0402 6.44363 20.7438C7.06863 21.4531 7.89363 22.0332 8.82613 22.3972C9.7503 22.7718 10.797 22.927 11.7911 22.8222C12.8245 22.7125 13.7961 22.4175 14.6445 21.8813C15.4878 21.3556 16.187 20.6439 16.6836 19.8476C17.1695 19.044 17.4536 18.1641 17.5428 17.3142C17.5953 16.8925 17.5903 16.4619 17.547 16.08C17.5245 15.7152 17.412 15.2318 17.3228 14.9239C16.8861 13.4768 16.017 12.479 15.3395 11.9087C14.9978 11.6202 14.6978 11.4277 14.4986 11.3058C14.2811 11.1831 14.1645 11.1173 14.1645 11.1173L14.4278 10.6469Z" fill="#181716"/>
</svg>
